<mxfile host="app.diagrams.net" modified="2024-02-17T17:52:27.523Z" agent="Mozilla/5.0 (X11; Linux x86_64; rv:109.0) Gecko/20100101 Firefox/115.0" version="23.1.5" etag="Twu_jOR5p2OT69zqyXjx" type="github">
  <diagram name="Page-1" id="yQr51rAG9zS7WB6BCbRc">
    <mxGraphModel>
      <root>
        <mxCell id="0" />
        <mxCell id="1" parent="0" />
      </root>
    </mxGraphModel>
  </diagram>
</mxfile>
